<?xml version="1.0" encoding="UTF-8" standalone="no" ?>
<!DOCTYPE svg PUBLIC "-//W3C//DTD SVG 1.1//EN" "http://www.w3.org/Graphics/SVG/1.1/DTD/svg11.dtd">
<svg xmlns="http://www.w3.org/2000/svg" xmlns:xlink="http://www.w3.org/1999/xlink" version="1.1" width="500" height="500" viewBox="0 0 500 500" xml:space="preserve">
<desc>Created with Fabric.js 4.6.0</desc>
<defs>
</defs>
<g transform="matrix(0.89 0 0 0.17 250 479.55)" id="ReUQDSNjahp09otuQDFC2"  >
<path style="stroke: rgb(201,54,208); stroke-width: 0; stroke-dasharray: none; stroke-linecap: butt; stroke-dashoffset: 0; stroke-linejoin: miter; stroke-miterlimit: 4; fill: rgb(0,0,0); fill-opacity: 0.2; fill-rule: nonzero; opacity: 1;" vector-effect="non-scaling-stroke"  transform=" translate(0, 0)" d="M 0 -115.07937 C 63.52381 -115.07937 115.07937 -63.52381 115.07937 0 C 115.07937 63.52381 63.52381 115.07937 0 115.07937 C -63.52381 115.07937 -115.07937 63.52381 -115.07937 0 C -115.07937 -63.52381 -63.52381 -115.07937 0 -115.07937 z" stroke-linecap="round" />
</g>
<g transform="matrix(5.97 0 0 5.97 250 250.06)" id="bNldnGafHDYVRhByBA357"  >
<path style="stroke: none; stroke-width: 1; stroke-dasharray: none; stroke-linecap: butt; stroke-dashoffset: 0; stroke-linejoin: miter; stroke-miterlimit: 4; fill: rgb(225,168,6); fill-rule: nonzero; opacity: 1;" vector-effect="non-scaling-stroke"  transform=" translate(-40, -40.01)" d="M 40 0 C 25.2 0 13.2 12 13.2 26.8 C 13.2 40 34.4 72.4 39.099999999999994 79.5 C 39.49999999999999 80.2 40.49999999999999 80.2 40.89999999999999 79.5 C 45.599999999999994 72.4 66.79999999999998 40 66.79999999999998 26.799999999999997 C 66.8 12 54.8 0 40 0 z" stroke-linecap="round" />
</g>
<g transform="matrix(5.97 0 0 5.97 250 164.03)" id="ramLw8NVkj8KKhIJ4EgZA"  >
<path style="stroke: none; stroke-width: 1; stroke-dasharray: none; stroke-linecap: butt; stroke-dashoffset: 0; stroke-linejoin: miter; stroke-miterlimit: 4; fill: rgb(255,255,255); fill-rule: nonzero; opacity: 1;" vector-effect="non-scaling-stroke"  transform=" translate(-40, -25.6)" d="M 56.8 25.6 C 56.8 34.900000000000006 49.3 42.400000000000006 40 42.400000000000006 C 30.700000000000003 42.400000000000006 23.2 34.900000000000006 23.2 25.600000000000005 C 23.2 16.300000000000004 30.7 8.8 40 8.8 C 49.3 8.8 56.8 16.4 56.8 25.6 z" stroke-linecap="round" />
</g>
<g transform="matrix(0.15 0 0 0.15 250 170.47)" id="SXEHA0iILQnad3LHCM1x4"  >
<path style="stroke: none; stroke-width: 1; stroke-dasharray: none; stroke-linecap: butt; stroke-dashoffset: 0; stroke-linejoin: miter; stroke-miterlimit: 4; fill: rgb(58,162,183); fill-rule: nonzero; opacity: 1;" vector-effect="non-scaling-stroke"  transform=" translate(-499.95, -500)" d="M 875.9 90 L 795.9 90 L 795.9 218 L 837.9 218 C 839.3 217.9 840.6999999999999 217.6 842.1 217.6 C 869.1 217.6 891 239.5 891 266.4 C 891 293.29999999999995 869.1 315.2 842.1 315.2 C 838.4 315.2 834.8000000000001 314.7 831.4 313.9 L 236 313.9 L 204 313.9 L 168.5 313.9 C 165 314.7 161.5 315.2 157.8 315.2 C 154.10000000000002 315.2 150.5 314.7 147.10000000000002 313.9 L 140.00000000000003 313.9 L 140.00000000000003 311.7 C 121.80000000000003 304.59999999999997 108.90000000000003 287 108.90000000000003 266.3 C 108.90000000000003 245.60000000000002 121.80000000000004 228 140.00000000000003 220.9 L 140.00000000000003 217.9 L 153.60000000000002 217.9 C 155.00000000000003 217.8 156.3 217.5 157.8 217.5 C 159.3 217.5 160.60000000000002 217.8 162 217.9 L 204 217.9 L 204 169.9 L 236 169.9 L 236 217.9 L 764 217.9 L 764 90 L 668 90 L 668 118 L 588 154 L 610.9 82.6 L 588 10 L 668 46 L 668 74 L 876 74 L 876 42 L 940 82 L 876 122 L 876 90 L 875.9 90 z M 268 154 L 172 154 L 172 106 L 268 106 L 268 154 z M 322.8 119.9 C 301.5 119.9 283.3 107.7 274.1 90 L 225.40000000000003 90 C 217.00000000000003 97.9 204.40000000000003 103.2 190.50000000000003 105.6 C 189.80000000000004 105.69999999999999 189.30000000000004 99.19999999999999 189.00000000000003 90 L 163.60000000000002 90 C 154.50000000000003 107.7 136.20000000000002 119.9 114.90000000000002 119.9 C 84.50000000000003 119.9 59.90000000000002 95.30000000000001 59.90000000000002 65 C 59.90000000000002 34.7 84.50000000000003 10.100000000000001 114.90000000000002 10.100000000000001 C 142.90000000000003 10.100000000000001 165.70000000000002 31.1 169.20000000000002 58.1 L 188.8 58.1 C 189 42.400000000000006 189.60000000000002 28.8 190.5 28.700000000000003 C 211.8 26.500000000000004 229.8 40.7 234.6 58.1 L 268.4 58.1 C 271.9 31.1 294.7 10.100000000000001 322.7 10.100000000000001 C 353.09999999999997 10.100000000000001 377.7 34.7 377.7 65 C 377.7 95.3 353.2 119.9 322.8 119.9 z M 460 346 L 540 346 L 540 426 L 460 426 L 460 346 z M 455.1 793.9 L 535.1 793.9 L 535.1 990 L 455.1 990 L 455.1 793.9 z M 460 457.9 L 540 457.9 L 588 457.9 L 732 457.9 L 732 745.9 L 572 745.9 L 540 745.9 L 460 745.9 L 444 745.9 L 252 745.9 L 252 457.9 L 428 457.9 L 460 457.9 z M 518.3 705.9 C 554.3 705.9 584.5999999999999 680.1 594.4 644.9 L 568.6 644.9 C 560.1 666.4 540.8000000000001 681.5 518.3000000000001 681.5 C 487.9000000000001 681.5 463.30000000000007 654.2 463.30000000000007 620.5 C 463.30000000000007 586.8 487.9000000000001 559.5 518.3000000000001 559.5 C 536.2 559.5 552.0000000000001 569.2 562.0000000000001 583.9 L 590 583.9 C 577.3 555 550 535 518.3 535 C 474.4 535 438.9 573.3 438.9 620.5 C 438.9 667.6 474.5 705.9 518.3 705.9 z M 402.2 510.6 C 388.7 510.6 377.8 521.5 377.8 535 C 377.8 548.5 388.7 559.4 402.2 559.4 C 415.7 559.4 426.59999999999997 548.5 426.59999999999997 535 C 426.7 521.5 415.7 510.6 402.2 510.6 z M 402.2 547.2 C 395.5 547.2 390 541.7 390 535 C 390 528.3 395.5 522.8 402.2 522.8 C 408.9 522.8 414.4 528.3 414.4 535 C 414.5 541.7 409 547.2 402.2 547.2 z" stroke-linecap="round" />
</g>
</svg>