<?xml version="1.0" encoding="iso-8859-1"?>
<!-- Generator: Adobe Illustrator 19.0.0, SVG Export Plug-In . SVG Version: 6.00 Build 0)  -->
<svg version="1.1" id="Layer_1" xmlns="http://www.w3.org/2000/svg" xmlns:xlink="http://www.w3.org/1999/xlink" x="0px" y="0px"
	 viewBox="0 0 390.206 390.206" style="enable-background:new 0 0 390.206 390.206;" xml:space="preserve">
<g>
	<polygon style="fill:#FFC10D;" points="195.103,138.699 211.911,127.838 195.103,57.438 178.295,127.838 	"/>
	<polygon style="fill:#FFC10D;" points="211.911,262.303 195.103,251.442 178.295,262.303 195.103,332.703 	"/>
</g>
<g>
	<polygon style="fill:#FFFFFF;" points="251.475,195.071 262.335,211.879 332.735,195.071 262.335,178.263 	"/>
	<polygon style="fill:#FFFFFF;" points="138.731,195.071 127.871,178.263 57.471,195.071 127.871,211.879 	"/>
</g>
<g>
	<polygon style="fill:#56ACE0;" points="150.691,150.659 153.923,135.984 107.83,107.798 136.016,153.891 	"/>
	<polygon style="fill:#56ACE0;" points="239.515,239.483 236.283,254.158 282.376,282.343 254.19,236.251 	"/>
	<polygon style="fill:#56ACE0;" points="150.691,239.483 136.016,236.251 107.83,282.343 153.923,254.158 	"/>
	<polygon style="fill:#56ACE0;" points="236.283,135.984 239.515,150.659 254.19,153.891 282.376,107.798 	"/>
	<circle style="fill:#56ACE0;" cx="195.103" cy="195.071" r="34.133"/>
</g>
<path style="fill:#194F82;" d="M382.061,184.792l-107.83-25.988l46.093-75.313c5.43-8.663-4.848-18.424-13.576-13.576
	l-75.313,46.093L205.446,8.178c-2.198-10.861-18.424-10.861-20.622,0l-25.988,107.83L83.523,69.915
	c-8.663-5.43-18.424,4.848-13.576,13.576l46.093,75.313L8.145,184.792c-10.861,2.198-10.861,18.424,0,20.622l107.83,25.988
	l-46.093,75.313c-5.43,8.663,4.848,18.424,13.576,13.576l75.313-46.093l25.988,107.83c2.715,10.861,18.424,10.861,21.139,0
	l26.053-107.83l75.313,46.093c8.663,5.43,18.424-4.848,13.576-13.576l-46.093-75.313l107.313-25.988
	C392.921,203.216,392.921,186.925,382.061,184.792z M195.103,229.204c-18.941,0-34.133-15.192-34.133-34.133
	s15.192-34.133,34.133-34.133s34.133,15.192,34.133,34.133S214.044,229.204,195.103,229.204z M239.515,150.659l-3.232-14.61
	l46.093-28.25l-28.186,46.093L239.515,150.659z M211.911,127.838l-16.808,10.343l-16.808-10.343l16.808-70.982L211.911,127.838z
	 M153.923,135.984l-3.232,14.61l-14.61,3.232l-28.251-46.028L153.923,135.984z M127.871,178.263l10.279,16.808l-10.279,16.808
	l-70.982-16.808L127.871,178.263z M136.016,236.251l14.61,3.232l3.232,14.61l-46.028,28.251L136.016,236.251z M195.103,251.442
	l16.808,10.279l-16.808,70.982l-16.808-70.982L195.103,251.442z M236.283,254.158l3.232-14.61l14.61-3.232l28.251,46.028
	L236.283,254.158z M262.335,211.879l-10.343-16.808l10.279-16.808l70.982,16.808L262.335,211.879z"/>
<g>
</g>
<g>
</g>
<g>
</g>
<g>
</g>
<g>
</g>
<g>
</g>
<g>
</g>
<g>
</g>
<g>
</g>
<g>
</g>
<g>
</g>
<g>
</g>
<g>
</g>
<g>
</g>
<g>
</g>
</svg>
